<svg width="60" height="60" viewBox="0 0 60 60" fill="none" xmlns="http://www.w3.org/2000/svg">
<mask id="mask0_37_936" style="mask-type:alpha" maskUnits="userSpaceOnUse" x="0" y="0" width="60" height="60">
<rect width="60" height="60" rx="30" fill="#C4C4C4"/>
</mask>
<g mask="url(#mask0_37_936)">
<rect width="67" height="66" transform="translate(-5 -2)" fill="#FFCB53"/>
<path d="M44.0304 25.5639L35.037 24.1952L31.0167 15.6603C30.9069 15.4266 30.7262 15.2374 30.5031 15.1224C29.9434 14.8331 29.2633 15.0742 28.9835 15.6603L24.9632 24.1952L15.9698 25.5639C15.7218 25.6009 15.4951 25.7234 15.3216 25.9088C15.1117 26.1347 14.9961 26.4385 15.0001 26.7536C15.0041 27.0686 15.1274 27.3691 15.3428 27.5891L21.8497 34.2323L20.3124 43.6129C20.2764 43.8311 20.2994 44.0555 20.379 44.2607C20.4585 44.4659 20.5914 44.6436 20.7625 44.7738C20.9336 44.9039 21.1361 44.9812 21.347 44.997C21.558 45.0127 21.7689 44.9663 21.9559 44.8629L30.0001 40.4341L38.0442 44.8629C38.2638 44.9853 38.5188 45.0261 38.7633 44.9816C39.3796 44.8703 39.794 44.2583 39.6877 43.6129L38.1505 34.2323L44.6573 27.5891C44.8344 27.4073 44.9513 27.1699 44.9867 26.9103C45.0824 26.2612 44.6502 25.6603 44.0304 25.5639Z" fill="white"/>
</g>
</svg>
