<svg width="24" height="24" viewBox="0 0 24 24" fill="none" xmlns="http://www.w3.org/2000/svg">
<path fill-rule="evenodd" clip-rule="evenodd" d="M4.65011 16.7997C4.71997 16.7065 4.81056 16.6309 4.9147 16.5788C5.01885 16.5268 5.13369 16.4996 5.25012 16.4996H9.00021C9.19913 16.4996 9.3899 16.5787 9.53055 16.7193C9.67121 16.86 9.75023 17.0507 9.75023 17.2497C9.75023 17.4486 9.67121 17.6394 9.53055 17.78C9.3899 17.9207 9.19913 17.9997 9.00021 17.9997H5.62513L2.25005 22.4998H21.7505L18.3754 17.9997H15.0003C14.8014 17.9997 14.6107 17.9207 14.47 17.78C14.3293 17.6394 14.2503 17.4486 14.2503 17.2497C14.2503 17.0507 14.3293 16.86 14.47 16.7193C14.6107 16.5787 14.8014 16.4996 15.0003 16.4996H18.7504C18.8669 16.4996 18.9817 16.5268 19.0859 16.5788C19.19 16.6309 19.2806 16.7065 19.3504 16.7997L23.8506 22.7998C23.9341 22.9112 23.985 23.0437 23.9975 23.1824C24.01 23.3212 23.9837 23.4606 23.9214 23.5852C23.8591 23.7098 23.7633 23.8146 23.6448 23.8878C23.5264 23.961 23.3898 23.9998 23.2505 23.9998H0.750018C0.610731 23.9998 0.474195 23.961 0.35571 23.8878C0.237226 23.8146 0.141473 23.7098 0.0791818 23.5852C0.0168907 23.4606 -0.00947783 23.3212 0.00303094 23.1824C0.0155397 23.0437 0.0664315 22.9112 0.150004 22.7998L4.65011 16.7997Z" fill="#1EADD7"/>
<path fill-rule="evenodd" clip-rule="evenodd" d="M12.0004 1.49948C11.4094 1.49948 10.8242 1.61588 10.2783 1.84203C9.73229 2.06818 9.2362 2.39966 8.81833 2.81753C8.40046 3.2354 8.06898 3.73149 7.84283 4.27747C7.61668 4.82345 7.50028 5.40862 7.50028 5.99958C7.50028 6.59055 7.61668 7.17572 7.84283 7.7217C8.06898 8.26768 8.40046 8.76376 8.81833 9.18164C9.2362 9.59951 9.73229 9.93099 10.2783 10.1571C10.8242 10.3833 11.4094 10.4997 12.0004 10.4997C13.1939 10.4997 14.3385 10.0256 15.1824 9.18164C16.0264 8.3377 16.5005 7.19309 16.5005 5.99958C16.5005 4.80608 16.0264 3.66146 15.1824 2.81753C14.3385 1.9736 13.1939 1.49948 12.0004 1.49948ZM6.00025 5.99958C6.00035 4.8449 6.33364 3.71476 6.96011 2.7448C7.58658 1.77483 8.47962 1.00622 9.53208 0.531216C10.5845 0.0562076 11.7517 -0.10503 12.8935 0.0668506C14.0354 0.238731 15.1033 0.736429 15.9693 1.50022C16.8353 2.26402 17.4625 3.26146 17.7756 4.37288C18.0888 5.48429 18.0746 6.66246 17.7348 7.766C17.395 8.86955 16.7439 9.85161 15.8598 10.5943C14.9757 11.337 13.896 11.8089 12.7504 11.9532V20.2499C12.7504 20.4488 12.6714 20.6396 12.5307 20.7803C12.3901 20.9209 12.1993 20.9999 12.0004 20.9999C11.8015 20.9999 11.6107 20.9209 11.47 20.7803C11.3294 20.6396 11.2504 20.4488 11.2504 20.2499V11.9547C9.79978 11.772 8.46583 11.0659 7.4991 9.96903C6.53237 8.8722 5.99938 7.46014 6.00025 5.99808V5.99958Z" fill="#1EADD7"/>
</svg>
