<svg width="12" height="13" viewBox="0 0 12 13" fill="none" xmlns="http://www.w3.org/2000/svg">
<g clip-path="url(#clip0_140_487)">
<path d="M6 0.5C2.69166 0.5 0 3.19166 0 6.5C0 9.80834 2.69166 12.5 6 12.5C9.30834 12.5 12 9.80834 12 6.5C12 3.19166 9.30834 0.5 6 0.5ZM6 11.75C3.1051 11.75 0.750003 9.3949 0.750003 6.5C0.750003 3.6051 3.1051 1.25 6 1.25C8.8949 1.25 11.25 3.6051 11.25 6.5C11.25 9.3949 8.8949 11.75 6 11.75V11.75Z" fill="black"/>
<path d="M6.375 2.75001H5.625V6.65527L7.98486 9.01513L8.51513 8.48486L6.375 6.34472V2.75001Z" fill="black"/>
</g>
<defs>
<clipPath id="clip0_140_487">
<rect width="12" height="12" fill="white" transform="translate(0 0.5)"/>
</clipPath>
</defs>
</svg>
