<svg width="24" height="24" viewBox="0 0 24 24" fill="none" xmlns="http://www.w3.org/2000/svg">
<path d="M19.9664 4.17286C18.1342 1.52114 15.2305 0 12.0003 0C8.77006 0 5.86629 1.52114 4.03409 4.17286C2.21089 6.81117 1.7899 10.1513 2.90571 13.1024C3.20417 13.9082 3.67859 14.6912 4.31243 15.4249L11.3614 23.7046C11.5208 23.892 11.7544 24 12.0003 24C12.2461 24 12.4797 23.892 12.6391 23.7046L19.6861 15.4271C20.3228 14.6892 20.7966 13.9071 21.0926 13.1077C22.2106 10.1513 21.7896 6.81117 19.9664 4.17286ZM19.5211 12.52C19.2929 13.1368 18.9203 13.7466 18.4143 14.3331C18.4129 14.3345 18.4114 14.3359 18.4103 14.3376L12.0003 21.8666L5.58626 14.3329C5.08053 13.7468 4.70792 13.1371 4.47743 12.5144C3.55465 10.0739 3.90486 7.31217 5.41451 5.12728C6.9289 2.93541 9.32947 1.67831 12.0003 1.67831C14.671 1.67831 17.0713 2.93536 18.5857 5.12728C20.0957 7.31217 20.4462 10.0739 19.5211 12.52Z" fill="#1EADD7"/>
<path d="M12.0003 4.979C9.40928 4.979 7.30103 7.08697 7.30103 9.67832C7.30103 12.2697 9.40899 14.3776 12.0003 14.3776C14.5917 14.3776 16.6996 12.2697 16.6996 9.67832C16.6996 7.08725 14.5914 4.979 12.0003 4.979ZM12.0003 12.6993C10.3346 12.6993 8.97934 11.344 8.97934 9.67827C8.97934 8.01252 10.3346 6.65727 12.0003 6.65727C13.6661 6.65727 15.0213 8.01252 15.0213 9.67827C15.0213 11.344 13.6661 12.6993 12.0003 12.6993Z" fill="#1EADD7"/>
</svg>
