<svg width="24" height="24" viewBox="0 0 24 24" fill="none" xmlns="http://www.w3.org/2000/svg">
<path fill-rule="evenodd" clip-rule="evenodd" d="M4.65011 16.7997C4.71997 16.7066 4.81056 16.631 4.9147 16.5789C5.01885 16.5269 5.13369 16.4997 5.25012 16.4997H9.00021C9.19913 16.4997 9.3899 16.5788 9.53055 16.7194C9.67121 16.8601 9.75023 17.0508 9.75023 17.2498C9.75023 17.4487 9.67121 17.6394 9.53055 17.7801C9.3899 17.9208 9.19913 17.9998 9.00021 17.9998H5.62513L2.25005 22.4999H21.7505L18.3754 17.9998H15.0003C14.8014 17.9998 14.6107 17.9208 14.47 17.7801C14.3293 17.6394 14.2503 17.4487 14.2503 17.2498C14.2503 17.0508 14.3293 16.8601 14.47 16.7194C14.6107 16.5788 14.8014 16.4997 15.0003 16.4997H18.7504C18.8669 16.4997 18.9817 16.5269 19.0859 16.5789C19.19 16.631 19.2806 16.7066 19.3504 16.7997L23.8506 22.7999C23.9341 22.9113 23.985 23.0438 23.9975 23.1825C24.01 23.3213 23.9837 23.4607 23.9214 23.5853C23.8591 23.7099 23.7633 23.8147 23.6448 23.8879C23.5264 23.9611 23.3898 23.9999 23.2505 23.9999H0.750018C0.610731 23.9999 0.474195 23.9611 0.35571 23.8879C0.237226 23.8147 0.141473 23.7099 0.0791818 23.5853C0.0168907 23.4607 -0.00947783 23.3213 0.00303094 23.1825C0.0155397 23.0438 0.0664315 22.9113 0.150004 22.7999L4.65011 16.7997Z" fill="#1EADD7"/>
<path fill-rule="evenodd" clip-rule="evenodd" d="M12.0003 1.49957C11.4093 1.49957 10.8241 1.61597 10.2781 1.84212C9.73217 2.06827 9.23608 2.39974 8.81821 2.81762C8.40033 3.23549 8.06886 3.73158 7.84271 4.27756C7.61656 4.82353 7.50016 5.40871 7.50016 5.99967C7.50016 6.59063 7.61656 7.17581 7.84271 7.72179C8.06886 8.26776 8.40033 8.76385 8.81821 9.18173C9.23608 9.5996 9.73217 9.93107 10.2781 10.1572C10.8241 10.3834 11.4093 10.4998 12.0003 10.4998C13.1938 10.4998 14.3384 10.0257 15.1823 9.18173C16.0262 8.33779 16.5004 7.19317 16.5004 5.99967C16.5004 4.80617 16.0262 3.66155 15.1823 2.81762C14.3384 1.97368 13.1938 1.49957 12.0003 1.49957ZM6.00012 5.99967C6.00023 4.84498 6.33352 3.71485 6.95999 2.74488C7.58646 1.77491 8.4795 1.00631 9.53196 0.531304C10.5844 0.0562953 11.7516 -0.104942 12.8934 0.0669383C14.0352 0.238819 15.1032 0.736516 15.9692 1.50031C16.8352 2.26411 17.4624 3.26155 17.7755 4.37296C18.0887 5.48438 18.0745 6.66254 17.7347 7.76609C17.3948 8.86964 16.7438 9.8517 15.8597 10.5944C14.9756 11.3371 13.8959 11.809 12.7503 11.9533V20.25C12.7503 20.4489 12.6713 20.6397 12.5306 20.7803C12.3899 20.921 12.1992 21 12.0003 21C11.8013 21 11.6106 20.921 11.4699 20.7803C11.3293 20.6397 11.2502 20.4489 11.2502 20.25V11.9548C9.79966 11.7721 8.46571 11.0659 7.49898 9.96912C6.53225 8.87229 5.99926 7.46022 6.00012 5.99817V5.99967Z" fill="#1EADD7"/>
</svg>
