<svg width="38" height="46" viewBox="0 0 38 46" fill="none" xmlns="http://www.w3.org/2000/svg">
<g filter="url(#filter0_d_2_1269)">
<path d="M31.9099 8.50049C30.3106 6.16389 28.159 4.25709 25.6455 2.94896C23.1321 1.64082 20.3343 0.971725 17.5 1.00092C14.6657 0.971725 11.8679 1.64082 9.35441 2.94896C6.84092 4.25709 4.6893 6.16389 3.09007 8.50049C1.48674 10.8195 0.47054 13.4922 0.12859 16.2893C-0.21336 19.0865 0.129137 21.9247 1.12672 24.5607C1.70367 26.0943 2.5585 27.5087 3.64845 28.7332L16.3472 43.6244C16.4874 43.794 16.6635 43.9306 16.8628 44.0243C17.0621 44.1181 17.2797 44.1667 17.5 44.1667C17.7203 44.1667 17.9378 44.1181 18.1371 44.0243C18.3364 43.9306 18.5125 43.794 18.6528 43.6244L31.3515 28.7511C32.434 27.5212 33.288 26.1083 33.8732 24.5787C34.8708 21.9397 35.2133 19.0986 34.8714 16.2986C34.5295 13.4986 33.5134 10.8229 31.9099 8.50049Z" fill="black"/>
<path d="M8.155 17.9165C8.4729 20.4949 9.59555 22.9076 11.3633 24.8115C10.6034 22.1673 9.53438 19.6219 8.17835 17.2281C8.17835 17.4498 8.17835 17.6715 8.17835 17.9165H8.155ZM13.4284 26.6665C12.957 23.4105 12.1757 20.2071 11.095 17.0998C10.6281 15.8287 10.0705 14.5927 9.42666 13.4015C9.09746 13.912 8.83109 14.4604 8.63334 15.0348C9.05334 15.8515 9.45 16.6915 9.8 17.5315C10.9128 20.2073 11.7759 22.9802 12.3783 25.8148C12.702 26.1096 13.045 26.3824 13.405 26.6315L13.4284 26.6665ZM16.7183 16.5865C16.5783 14.3115 16.4383 12.0481 16.17 9.58647C15.6263 9.64587 15.0881 9.74726 14.56 9.88978C14.8984 11.9548 15.12 14.0315 15.4117 16.7148C15.785 20.4248 16.03 24.1815 16.24 27.9498C16.5049 28.0077 16.7742 28.0428 17.045 28.0548C17.045 24.4031 16.9283 20.7398 16.7183 16.6098V16.5865ZM14.0233 17.2164C13.651 15.0294 13.0528 12.8868 12.2383 10.8231C11.7548 11.0935 11.3012 11.4142 10.885 11.7798C11.6825 13.6196 12.3074 15.5294 12.7517 17.4848C13.4929 20.7223 14.0577 23.9977 14.4433 27.2965C14.7152 27.4466 15.0003 27.5716 15.295 27.6698C15.0937 24.1464 14.6689 20.6394 14.0233 17.1698V17.2164ZM26.7283 17.8581C26.7283 17.6131 26.7283 17.3915 26.7283 17.1698C25.3818 19.5682 24.3132 22.1125 23.5433 24.7531C25.3187 22.8531 26.4461 20.4391 26.7633 17.8581H26.7283ZM21.5133 26.6081C21.8712 26.3561 22.214 26.0834 22.54 25.7915C23.1331 22.9557 23.9924 20.1823 25.1067 17.5081C25.4683 16.6681 25.8533 15.8281 26.2733 15.0115C26.0667 14.4387 25.7967 13.8909 25.4683 13.3781C24.8537 14.5603 24.3235 15.7844 23.8817 17.0415C22.7956 20.1471 22.0141 23.3511 21.5483 26.6081H21.5133ZM18.2233 16.5631C18.025 20.6931 17.9433 24.3564 17.8967 28.0081C18.1675 27.9961 18.4368 27.961 18.7017 27.9031C18.9117 24.1348 19.1683 20.3781 19.5417 16.6681C19.8217 13.9848 20.0433 11.9081 20.3817 9.84314C19.8578 9.69957 19.3234 9.59813 18.7833 9.53979C18.515 12.0248 18.3633 14.2881 18.2233 16.5398V16.5631ZM20.9183 17.1464C20.2822 20.6171 19.8614 24.1238 19.6583 27.6464C19.9493 27.5483 20.2305 27.4233 20.4984 27.2731C20.888 23.9741 21.4566 20.6988 22.2017 17.4615C22.6371 15.5051 23.2583 13.5948 24.0567 11.7565C23.6405 11.3909 23.1868 11.0702 22.7033 10.7998C21.8942 12.8652 21.2962 15.0073 20.9183 17.1931" fill="white"/>
</g>
<defs>
<filter id="filter0_d_2_1269" x="0" y="0" width="38" height="45.1667" filterUnits="userSpaceOnUse" color-interpolation-filters="sRGB">
<feFlood flood-opacity="0" result="BackgroundImageFix"/>
<feColorMatrix in="SourceAlpha" type="matrix" values="0 0 0 0 0 0 0 0 0 0 0 0 0 0 0 0 0 0 127 0" result="hardAlpha"/>
<feOffset dx="2"/>
<feGaussianBlur stdDeviation="0.5"/>
<feComposite in2="hardAlpha" operator="out"/>
<feColorMatrix type="matrix" values="0 0 0 0 0 0 0 0 0 0 0 0 0 0 0 0 0 0 0.25 0"/>
<feBlend mode="normal" in2="BackgroundImageFix" result="effect1_dropShadow_2_1269"/>
<feBlend mode="normal" in="SourceGraphic" in2="effect1_dropShadow_2_1269" result="shape"/>
</filter>
</defs>
</svg>
