<svg width="32" height="32" viewBox="0 0 32 32" fill="none" xmlns="http://www.w3.org/2000/svg">
<path d="M4.87501 13.0824C4.8582 13.0572 4.84945 13.0274 4.84989 12.9971H4.84991C4.85038 12.9665 4.86012 12.9368 4.87785 12.9119C4.89554 12.887 4.92034 12.8681 4.949 12.8576C4.94905 12.8576 4.94911 12.8576 4.94917 12.8576L26.9485 4.85782L26.9495 4.85746C26.9763 4.84766 27.0054 4.84573 27.0333 4.85191C27.0612 4.85809 27.0868 4.87212 27.107 4.89234C27.1272 4.91257 27.1412 4.93814 27.1474 4.96606C27.1535 4.99398 27.1516 5.02307 27.1418 5.04991L27.1412 5.05151L19.1412 27.0514C19.1308 27.0799 19.112 27.1047 19.0873 27.1223C19.0635 27.1392 19.0354 27.1488 19.0064 27.15H19H18.9997C18.9697 27.15 18.9404 27.141 18.9155 27.1242C18.8907 27.1074 18.8715 27.0835 18.8603 27.0556L18.8602 27.0553L15.0192 17.4533L14.8839 17.1151L14.5457 16.9798L4.94474 13.1388L4.94425 13.1386C4.91601 13.1273 4.89186 13.1077 4.87501 13.0824Z" stroke="#1EADD7" stroke-width="1.7"/>
</svg>
